<?xml version="1.0" encoding="UTF-8"?>
<svg xmlns="http://www.w3.org/2000/svg" xmlns:xlink="http://www.w3.org/1999/xlink" viewBox="0 0 48 48" version="1.1" width="48px" height="48px">
<g id="surface1">
<path style=" fill:#f68d11;" d="M 39.601563 39 C 35.398438 42.101563 29.101563 44 24 44 C 16.699219 44 10.199219 41.101563 5.199219 36.601563 C 4.800781 36.199219 5.199219 35.800781 5.601563 36 C 11 39.101563 17.101563 40.898438 23.898438 40.898438 C 28.5 40.898438 34.300781 39.898438 39 37.898438 C 39.699219 37.699219 40.300781 38.5 39.601563 39 Z M 41.101563 36.898438 C 40.601563 36.199219 37.601563 36.601563 36.300781 36.699219 C 35.898438 36.699219 35.800781 36.398438 36.199219 36.101563 C 38.5 34.398438 42.398438 34.898438 42.800781 35.5 C 43.199219 36.101563 42.699219 40 40.5 41.800781 C 40.199219 42.101563 39.800781 41.898438 40 41.601563 C 40.5 40.398438 41.601563 37.601563 41.101563 36.898438 Z "/>
<path style=" fill:#f68d11;" d="M 36.898438 29.800781 C 35.898438 28.5 34.898438 27.398438 34.898438 24.898438 L 34.898438 16.601563 C 34.898438 13.101563 34.898438 10 32.398438 7.601563 C 30.398438 5.699219 27.101563 5 24.5 5 C 19 5 14.199219 7.199219 13 13.398438 C 12.898438 14.101563 13.398438 14.398438 13.800781 14.5 L 18.898438 15.101563 C 19.398438 15.101563 19.699219 14.601563 19.800781 14.101563 C 20.199219 12 21.898438 11 23.898438 11 C 25 11 27.101563 11.601563 27.101563 14 L 27.101563 17 C 23.898438 17 20.5 17 17.699219 18.199219 C 14.398438 19.601563 12.101563 22.5 12.101563 26.800781 C 12.101563 32.300781 15.5 35 19.898438 35 C 23.601563 35 25.800781 34.101563 28.699219 31.199219 C 29.601563 32.601563 30 33.398438 31.699219 34.898438 C 32.101563 35.101563 32.601563 35.101563 32.898438 34.800781 C 33.898438 33.898438 35.800781 32.199219 36.898438 31.300781 C 37.398438 30.898438 37.300781 30.300781 36.898438 29.800781 Z M 27 22.101563 C 27 24.101563 26.898438 29 22 29 C 19 29 19 26 19 26 C 19 21.5 23.199219 21 27 21 Z "/>
</g>
</svg>
